<svg version="1.1" id="Layer_1" xmlns="http://www.w3.org/2000/svg" xmlns:xlink="http://www.w3.org/1999/xlink" x="0px" y="0px" viewBox="0 0 500 500" style="width: 188px;" xml:space="preserve" data-imageid="3d-model-100" imageName="3D Model" class="illustrations_image">
<style type="text/css">
	.st0_3d-model-100{fill:#D1D3D4;}
	.st1_3d-model-100{fill:#231F20;}
	.st2_3d-model-100{fill:#FFFFFF;}
	.st3_3d-model-100{fill:#68E1FD;}
</style>
<g id="Outer_Cube_3d-model-100">
	<polygon class="st0_3d-model-100" points="110.4,331.4 110.4,169.1 248.2,86.5 248.2,252.3 &#9;"/>
	<path class="st1_3d-model-100" d="M110.4,332.1c-0.4,0-0.7-0.3-0.7-0.7c0,0,0,0,0,0V169.1c0-0.2,0.1-0.5,0.3-0.6l137.8-82.7&#10;&#9;&#9;c0.2-0.1,0.5-0.1,0.7,0c0.2,0.1,0.3,0.4,0.4,0.6v165.9c0,0.3-0.1,0.5-0.4,0.6L110.7,332C110.6,332.1,110.5,332.1,110.4,332.1z&#10;&#9;&#9; M111.1,169.6v160.6l136.4-78.2V87.7L111.1,169.6z"/>
	<polygon class="st2_3d-model-100" points="248.2,252.3 389.6,331.4 389.6,167.6 248.2,86.5 &#9;"/>
	<path class="st1_3d-model-100" d="M389.6,332.1c-0.1,0-0.2,0-0.3-0.1l-141.4-79c-0.2-0.1-0.4-0.4-0.4-0.6V86.5c0-0.3,0.1-0.5,0.4-0.6&#10;&#9;&#9;c0.2-0.1,0.5-0.1,0.7,0L390,167c0.2,0.1,0.3,0.4,0.4,0.6v163.8c0,0.2-0.1,0.5-0.3,0.6C389.9,332,389.7,332.1,389.6,332.1z&#10;&#9;&#9; M248.9,251.9l140,78.2V168l-140-80.3V251.9z"/>
	<polygon class="st2_3d-model-100" points="110.4,331.4 248.2,413.5 389.6,331.4 248.2,252.3 &#9;"/>
	<path class="st1_3d-model-100" d="M248.2,414.2c-0.1,0-0.3,0-0.4-0.1L110,332c-0.2-0.1-0.3-0.4-0.3-0.6c0-0.2,0.1-0.5,0.3-0.6l137.8-79&#10;&#9;&#9;c0.2-0.1,0.5-0.1,0.7,0l141.4,79c0.3,0.2,0.5,0.6,0.3,1c-0.1,0.1-0.2,0.2-0.3,0.3l-141.4,82.1C248.4,414.2,248.3,414.2,248.2,414.2&#10;&#9;&#9;z M111.8,331.4l136.4,81.3l140-81.3l-140-78.2L111.8,331.4z"/>
	<polygon class="st1_3d-model-100" points="250,331.4 155.3,358.1 110.4,331.4 179.3,291.9 &#9;"/>
	<path class="st1_3d-model-100" d="M155.3,358.8c-0.1,0-0.3,0-0.4-0.1L110,332c-0.2-0.1-0.3-0.4-0.3-0.6c0-0.2,0.1-0.5,0.3-0.6l68.9-39.5&#10;&#9;&#9;c0.2-0.1,0.5-0.1,0.7,0l70.7,39.5c0.3,0.2,0.5,0.6,0.3,1c-0.1,0.2-0.2,0.3-0.4,0.3l-94.7,26.8L155.3,358.8z M111.8,331.4l43.6,26&#10;&#9;&#9;l92.8-26.2l-68.9-38.5L111.8,331.4z"/>
	<path class="st0_3d-model-100" d="M370.8,242.3c-0.1,0-0.3,0-0.4-0.1L340,225.4c-0.2-0.1-0.4-0.4-0.4-0.7v-51.5c0-0.4,0.4-0.8,0.8-0.8&#10;&#9;&#9;c0.1,0,0.3,0,0.4,0.1l30.5,17.6c0.2,0.1,0.4,0.4,0.4,0.7v50.7C371.6,241.9,371.3,242.3,370.8,242.3&#10;&#9;&#9;C370.9,242.3,370.9,242.3,370.8,242.3L370.8,242.3z M341.1,224.2l28.9,16v-49l-28.9-16.7V224.2z"/>
</g>
<g id="Inner_Cube_3d-model-100">
	<polygon class="st3_3d-model-100 targetColor" points="250,331.4 250,249 318.9,208.9 318.9,291.9 &#9;" style="fill: rgb(89, 227, 165);"/>
	<path class="st1_3d-model-100" d="M250,332.1c-0.1,0-0.2,0-0.4-0.1c-0.2-0.1-0.3-0.4-0.4-0.6V249c0-0.2,0.1-0.5,0.4-0.6l68.9-40&#10;&#9;&#9;c0.2-0.1,0.5-0.1,0.7,0c0.2,0.1,0.4,0.4,0.4,0.6v82.9c0,0.2-0.1,0.5-0.4,0.6L250.4,332C250.2,332.1,250.1,332.1,250,332.1z&#10;&#9;&#9; M250.7,249.4v80.8l67.5-38.7v-81.3L250.7,249.4z"/>
	<polygon class="st3_3d-model-100 targetColor" points="250,331.4 179.3,291.9 179.3,208.9 250,249 &#9;" style="fill: rgb(89, 227, 165);"/>
	<path class="st1_3d-model-100" d="M250,332.1c-0.1,0-0.2,0-0.3-0.1L179,292.5c-0.2-0.1-0.4-0.4-0.4-0.6v-82.9c0-0.3,0.1-0.5,0.4-0.6&#10;&#9;&#9;c0.2-0.1,0.5-0.1,0.7,0l70.7,40c0.2,0.1,0.4,0.4,0.4,0.6v82.4c0,0.2-0.1,0.5-0.4,0.6C250.3,332,250.1,332.1,250,332.1z M180,291.4&#10;&#9;&#9;l69.3,38.7v-80.8L180,210.1V291.4z"/>
	<polygon class="st3_3d-model-100 targetColor" points="179.3,208.9 248.2,168.6 318.9,208.9 250,249 &#9;" style="fill: rgb(89, 227, 165);"/>
	<path class="st1_3d-model-100" d="M250,249.7c-0.1,0-0.2,0-0.4-0.1l-70.7-40c-0.2-0.1-0.3-0.4-0.4-0.6c0-0.3,0.1-0.5,0.4-0.6l68.9-40.4&#10;&#9;&#9;c0.2-0.1,0.5-0.1,0.7,0l70.7,40.3c0.2,0.1,0.4,0.4,0.4,0.6c0,0.3-0.1,0.5-0.4,0.6l-68.9,40C250.2,249.6,250.1,249.6,250,249.7z&#10;&#9;&#9; M180.7,208.9l69.3,39.2l67.5-39.2l-69.3-39.5L180.7,208.9z"/>
</g>
</svg>