<svg version="1.1" id="Layer_1" xmlns="http://www.w3.org/2000/svg" xmlns:xlink="http://www.w3.org/1999/xlink" x="0px" y="0px" viewBox="0 0 500 500" style="width: 188px;" xml:space="preserve" data-imageid="augmented-reality-44" imageName="Augmented Reality" class="illustrations_image">
<style type="text/css">
	.st0_augmented-reality-44{fill:#D1D3D4;}
	.st1_augmented-reality-44{fill:#FFFFFF;}
	.st2_augmented-reality-44{fill:#231F20;}
	.st3_augmented-reality-44{fill:#68E1FD;}
	.st4_augmented-reality-44{fill:none;}
</style>
<path id="Ground_augmented-reality-44" class="st0_augmented-reality-44" d="M469.9,282.5H30.1c-0.4,0-0.7-0.3-0.7-0.7s0.3-0.7,0.7-0.7c0,0,0,0,0,0h439.7&#10;&#9;c0.4,0,0.7,0.3,0.7,0.7S470.3,282.5,469.9,282.5C469.9,282.5,469.9,282.5,469.9,282.5z"/>
<g id="Character_augmented-reality-44">
	<path class="st1_augmented-reality-44" d="M150,150.7c0.6,0,24.6-26.2,25.4-27.6s0-13.8,3.6-13.7c2.4,0.1,2.5,14.4,2.5,14.4s11.2-1.3,12.4-0.7&#10;&#9;&#9;s1,4.3-0.7,6.8s-2.1,4.9-5.3,4.5c-1.4-0.2,1.9-6.1,1.9-6.1c-1.9,2.3-4.1,4.3-6.5,6l-14.3,34.9L150,150.7z"/>
	<path class="st2_augmented-reality-44" d="M168.8,169.8c-0.2,0-0.4-0.1-0.5-0.2l-18.8-18.4c-0.2-0.2-0.3-0.5-0.2-0.8c0.1-0.2,0.2-0.3,0.4-0.4&#10;&#9;&#9;c1.7-1.3,24.1-25.8,25.1-27.3c0.2-1.2,0.3-2.3,0.4-3.5c0.3-4.7,0.7-10.5,3.7-10.5h0.1c2.6,0.1,3.1,8.7,3.2,14.3&#10;&#9;&#9;c3.8-0.4,10.9-1.2,12-0.6c0.5,0.3,0.9,0.9,1,1.5c0.3,2.2-0.2,4.5-1.5,6.3c-0.4,0.6-0.7,1.1-1,1.6c-1,1.8-2,3.5-5,3.1&#10;&#9;&#9;c-0.4,0-0.7-0.3-0.8-0.6c-0.2-0.9-0.1-1.8,0.3-2.6c-1.1,1-2.2,1.9-3.4,2.8l-14.2,34.7c-0.1,0.2-0.3,0.4-0.5,0.4L168.8,169.8z&#10;&#9;&#9; M151,150.6l17.6,17.2l13.9-33.9c0-0.1,0.1-0.2,0.2-0.3c2.3-1.7,4.5-3.7,6.3-5.9c0.2-0.3,0.6-0.4,0.9-0.2c0.3,0.2,0.4,0.6,0.2,0.9&#10;&#9;&#9;c-1,1.6-1.7,3.3-2.2,5.1c1.8,0.1,2.4-0.8,3.4-2.5c0.3-0.5,0.7-1.1,1.1-1.7c1-1.5,1.5-3.4,1.2-5.2c0-0.2-0.1-0.4-0.3-0.6&#10;&#9;&#9;c-0.8-0.3-6.7,0.2-11.9,0.8c-0.2,0-0.4,0-0.6-0.2c-0.1-0.1-0.2-0.3-0.2-0.5c0-6.9-0.9-13.3-1.8-13.7c-1.8-0.1-2.2,6.2-2.4,9.2&#10;&#9;&#9;c-0.1,2.3-0.2,3.5-0.6,4.1C175.9,123.6,155.8,146.3,151,150.6z"/>
	<path class="st1_augmented-reality-44" d="M182.5,109.2h27c1.1,0,1.9,0.9,1.9,1.9v13.6c0,1.1-0.9,1.9-1.9,1.9h-27c-1.1,0-1.9-0.9-1.9-1.9v-13.6&#10;&#9;&#9;C180.5,110.1,181.4,109.2,182.5,109.2z"/>
	<path class="st2_augmented-reality-44" d="M209.5,127.4h-27c-1.5,0-2.6-1.2-2.6-2.6v-13.6c0-1.5,1.2-2.6,2.6-2.6h27c1.5,0,2.6,1.2,2.6,2.6v13.6&#10;&#9;&#9;C212.1,126.2,210.9,127.4,209.5,127.4L209.5,127.4z M182.5,109.9c-0.7,0-1.2,0.6-1.2,1.2v13.6c0,0.7,0.6,1.2,1.2,1.2h27&#10;&#9;&#9;c0.7,0,1.2-0.6,1.2-1.2v-13.6c0-0.7-0.5-1.2-1.2-1.2H182.5z"/>
	<path class="st1_augmented-reality-44" d="M177.3,160.1l24.4,9.9c0,0,6.8-35.5,6.3-36.9s-7.9-6.3-6.3-6.8s6.3,1.9,6.3,1.9s1.2-18.4,3.2-18.8&#10;&#9;&#9;c4.1-0.9,3.8,8.7,3.8,8.7s7.1,4.6,7.9,9.3s-2.5,10.9-2.5,12.3s5.1,49.7-2.6,54.9s-46-11.2-46-11.2"/>
	<path class="st2_augmented-reality-44" d="M213.2,196.2c-12.9,0-40.2-11.6-41.6-12.2c-0.4-0.2-0.5-0.6-0.4-0.9s0.6-0.5,0.9-0.4l0,0&#10;&#9;&#9;c10.5,4.5,39.2,15.3,45.3,11.3c2.4-1.6,6-10.6,2.5-52.3c-0.1-1.1-0.2-1.9-0.2-2c0.1-0.9,0.4-1.8,0.8-2.7c0.9-2.6,2.2-6.4,1.7-9.4&#10;&#9;&#9;c-0.8-4.3-7.5-8.8-7.6-8.8c-0.2-0.1-0.3-0.4-0.3-0.6c0-1.7-0.2-6.4-1.8-7.8c-0.3-0.3-0.8-0.4-1.2-0.3c-0.9,0.8-2.2,10.1-2.7,18.2&#10;&#9;&#9;c0,0.2-0.2,0.4-0.4,0.6c-0.2,0.1-0.5,0.1-0.7,0c-1.6-0.9-3.4-1.6-5.3-1.9c0.9,1,1.9,1.9,3,2.8c1.8,1.6,2.9,2.5,3.2,3.2&#10;&#9;&#9;c0.6,1.4-4.2,26.5-6.2,37.2c-0.1,0.4-0.4,0.6-0.8,0.6c-0.1,0-0.1,0-0.2-0.1l-24.4-9.8c-0.4-0.1-0.5-0.6-0.4-0.9s0.6-0.5,0.9-0.4&#10;&#9;&#9;l23.7,9.5c2.6-13.8,6.4-34.1,6.1-35.7c-0.8-0.9-1.8-1.8-2.8-2.5c-2.8-2.4-3.9-3.4-3.8-4.4c0.1-0.4,0.3-0.6,0.7-0.8&#10;&#9;&#9;c1.4-0.5,4.3,0.7,5.9,1.5c0.6-8.4,1.7-18,3.7-18.4c0.8-0.2,1.7,0,2.4,0.6c2.1,1.8,2.3,6.9,2.3,8.5c1.4,1,7.1,5.2,7.9,9.5&#10;&#9;&#9;c0.6,3.4-0.8,7.5-1.8,10.2c-0.3,0.7-0.5,1.5-0.7,2.2c0,0.1,0.1,0.8,0.2,1.9c2.8,32.3,1.7,50.3-3.1,53.6&#10;&#9;&#9;C216.7,196,215,196.3,213.2,196.2z"/>
	<path class="st2_augmented-reality-44" d="M149.9,114.7c-3,0-5.4-2.4-5.4-5.4s2.4-5.4,5.4-5.4s5.4,2.4,5.4,5.4c0,0,0,0,0,0&#10;&#9;&#9;C155.3,112.2,152.9,114.6,149.9,114.7z M149.9,105.2c-2.2,0-4,1.8-4,4s1.8,4,4,4s4-1.8,4-4S152.1,105.2,149.9,105.2z"/>
	<path class="st1_augmented-reality-44" d="M115.9,129.7c-7.2-0.3-8.9-2.1-11.6-8.5c-2-4.7-3.2-9.8-3.6-14.9c-0.6-10.1,3.2-20.2,13.6-23.6&#10;&#9;&#9;c7.8-2.4,16.1-2.4,23.9,0c6,1.8,13.1,6.5,12.4,13.7c-0.3,2.6-2.3,5.1-4.9,5.2c-1.3,7.7-5.4,13-10.5,18.6c-3.4,3.8-7.7,6.8-12.5,8.5&#10;&#9;&#9;C120.4,129.5,118.2,129.9,115.9,129.7z"/>
	<path class="st2_augmented-reality-44" d="M116.8,130.5c-0.3,0-0.6,0-1,0l0,0c-7.5-0.3-9.3-2.2-12.2-9c-2-4.8-3.3-9.9-3.6-15.1&#10;&#9;&#9;c-0.7-12.1,4.5-21.2,14-24.3c7.9-2.4,16.4-2.4,24.3,0c7,2,13.6,7.3,12.9,14.5c-0.3,2.6-2.2,5.4-5,5.8c-1.5,8-6,13.5-10.5,18.4&#10;&#9;&#9;c-3.5,3.9-7.9,6.9-12.8,8.7C120.9,130.1,118.9,130.5,116.8,130.5z M115.9,129c2.2,0.1,4.4-0.2,6.4-0.9c4.7-1.7,8.9-4.6,12.3-8.3&#10;&#9;&#9;c5.6-6.1,9.1-11.1,10.3-18.2c0.1-0.3,0.3-0.6,0.6-0.6c2.3-0.1,4-2.5,4.3-4.6c0.8-7.3-7.1-11.6-11.9-13c-7.7-2.3-15.8-2.3-23.5,0&#10;&#9;&#9;c-8.9,2.9-13.8,11.5-13.1,22.9c0.3,5,1.5,10,3.5,14.7C107.6,127.1,109,128.7,115.9,129L115.9,129z"/>
	<path class="st1_augmented-reality-44" d="M147.6,112.9c0,0,5.5,9.1,4.2,10.9s-5.3,0.4-5.3,0.4"/>
	<path class="st2_augmented-reality-44" d="M149.5,125.4c-1.1,0-2.1-0.2-3.1-0.5c-0.4-0.1-0.6-0.5-0.4-0.9s0.5-0.6,0.9-0.4c0.9,0.3,3.7,1,4.5-0.2&#10;&#9;&#9;c0.5-0.8-1.4-5.5-4.3-10.1c-0.2-0.3-0.1-0.8,0.2-1c0.3-0.2,0.8-0.1,1,0.2c1.7,2.8,5.6,9.7,4.2,11.6&#10;&#9;&#9;C151.7,125,150.6,125.5,149.5,125.4z"/>
	<path class="st1_augmented-reality-44" d="M146.8,101.2c3.6,3.2,2.3,9.6,2.1,13.8c-0.3,5.9-0.7,11.7-1.2,17.6c-0.4,3.7-10,3.4-11.7,2.2l0.9,14.8l-20-8.5&#10;&#9;&#9;l1.3-12.1c0,0,6.6,0.3,10.6-7.2s4.2-24,4.2-24S143.3,98.1,146.8,101.2z"/>
	<path class="st2_augmented-reality-44" d="M137,150.2c-0.1,0-0.2,0-0.3,0l-20-8.6c-0.3-0.1-0.5-0.4-0.4-0.7l1.3-12.1c0-0.4,0.4-0.6,0.7-0.6&#10;&#9;&#9;c0.2,0,6.2,0.2,10-6.8c3.9-7.2,4.1-23.5,4.1-23.6c0-0.2,0.1-0.4,0.2-0.5c0.1-0.1,0.3-0.2,0.5-0.2c0.4,0,10.5,0.4,14.2,3.6&#10;&#9;&#9;c3.3,2.9,2.8,8,2.5,12c-0.1,0.8-0.1,1.6-0.2,2.2c-0.3,5.8-0.7,11.8-1.2,17.6c-0.2,1.3-1,2.3-2.2,2.7c-2.6,1.2-7,1.2-9.3,0.5&#10;&#9;&#9;l0.9,13.7c0,0.2-0.1,0.5-0.3,0.6C137.3,150.2,137.1,150.2,137,150.2z M117.8,140.5l18.4,7.9l-0.9-13.6c0-0.3,0.1-0.5,0.4-0.7&#10;&#9;&#9;c0.2-0.1,0.5-0.1,0.8,0.1c0.9,0.6,6.2,1.1,9.1-0.2c0.9-0.4,1.4-0.9,1.4-1.6c0.5-5.8,1-11.8,1.2-17.6c0-0.7,0.1-1.5,0.2-2.3&#10;&#9;&#9;c0.3-3.8,0.7-8.5-2-10.9l0,0c-2.8-2.4-10.2-3.1-12.6-3.2c-0.1,3.3-0.6,16.8-4.2,23.6c-3.5,6.4-8.8,7.4-10.6,7.5L117.8,140.5z"/>
	<path class="st1_augmented-reality-44" d="M147.7,128.1c0,0-4.7,2.6-6.9-2.2"/>
	<path class="st2_augmented-reality-44" d="M144.9,129.5c-0.5,0-1-0.1-1.5-0.2c-1.5-0.5-2.6-1.6-3.2-3.1c-0.2-0.4,0-0.8,0.3-0.9c0.4-0.2,0.8,0,0.9,0.3&#10;&#9;&#9;c0.4,1.1,1.3,1.9,2.3,2.3c1.2,0.3,2.5,0.1,3.6-0.5c0.3-0.2,0.8-0.1,1,0.2c0,0,0,0,0,0c0.2,0.3,0.1,0.8-0.3,0.9&#10;&#9;&#9;C147.1,129.3,146,129.5,144.9,129.5z"/>
	<path class="st2_augmented-reality-44" d="M123.4,116.2c-0.1,0-0.1,0-0.2,0c-0.4-0.1-0.6-0.5-0.5-0.9c0.9-3.1,1.5-3.1,1.9-3.1c0.5,0,19.8-2.4,30-3.7&#10;&#9;&#9;c0.4-0.1,0.7,0.2,0.8,0.6c0,0,0,0,0,0c0,0.4-0.2,0.7-0.6,0.8c-2.9,0.3-27.2,3.4-29.8,3.7c-0.4,0.7-0.6,1.4-0.8,2.2&#10;&#9;&#9;C124,116.1,123.7,116.3,123.4,116.2z M124.7,113.6L124.7,113.6z"/>
	<path class="st1_augmented-reality-44" d="M136.2,116.2c-0.1-1.5-0.6-2.9-1.5-4.1c-0.5-1-1.2-1.9-2-2.8c-0.8-0.8-2-1.2-3.1-1.1c-1,0.2-1.9,0.8-2.4,1.7&#10;&#9;&#9;c-0.5,0.9-0.8,1.9-0.8,2.9c-0.4,4.5,1.7,8.8,5.4,11.4l-0.3-0.4"/>
	<path class="st2_augmented-reality-44" d="M131.7,125c-0.1,0-0.3,0-0.4-0.1c-3.9-2.7-6.1-7.3-5.7-12.1c0.1-1.1,0.4-2.2,0.9-3.2c0.6-1.1,1.7-1.8,2.9-2.1&#10;&#9;&#9;c1.4-0.2,2.7,0.3,3.7,1.3c0.9,0.9,1.6,1.8,2.1,2.9c0.9,1.3,1.5,2.9,1.6,4.5c0,0.4-0.3,0.7-0.7,0.7c-0.4,0-0.7-0.3-0.7-0.7&#10;&#9;&#9;c0,0,0,0,0,0c-0.1-1.3-0.6-2.6-1.4-3.7c-0.5-1-1.1-1.8-1.9-2.6c-0.7-0.7-1.6-1-2.6-0.9c-0.8,0.2-1.5,0.7-1.9,1.4&#10;&#9;&#9;c-0.4,0.8-0.7,1.7-0.8,2.6c-0.3,4,1.3,7.8,4.4,10.3c0.2,0,0.4,0.1,0.5,0.2l0.3,0.4c0.2,0.3,0.2,0.6,0,0.9&#10;&#9;&#9;C132.1,124.9,131.9,125,131.7,125z"/>
	
		<ellipse transform="matrix(0.9999 -1.570732e-02 1.570732e-02 0.9999 -1.6825 2.3079)" class="st2_augmented-reality-44" cx="146.1" cy="108.3" rx="0.8" ry="2.1"/>
	<path class="st1_augmented-reality-44" d="M63.3,367.7c0,0-0.5,5.9-3,9.2s-5.3,8.6-5.9,10.5s12.8,31.7,21.8,31.7s-0.5-21.3,0-24.6s13.2-22.9,13.2-22.9&#10;&#9;&#9;L63.3,367.7z"/>
	<path class="st2_augmented-reality-44" d="M76.3,419.8c-2.8,0-6.2-2.5-10-7.6c-6.7-8.8-13-23.2-12.5-25c0.6-2.1,3.7-7.5,6-10.7s2.8-8.8,2.8-8.8&#10;&#9;&#9;c0-0.2,0.1-0.4,0.3-0.5c0.2-0.1,0.3-0.2,0.5-0.1l26.1,3.9c0.2,0,0.4,0.2,0.5,0.4c0.1,0.2,0.1,0.5,0,0.7&#10;&#9;&#9;c-3.5,5.4-12.7,20.1-13.1,22.6c-0.1,0.8,0.6,3.3,1.3,6c1.8,6.3,3.9,14.2,1.4,17.6C78.9,419.2,77.6,419.8,76.3,419.8z M64,368.5&#10;&#9;&#9;c-0.2,1.7-1,6.1-3,8.8c-2.5,3.3-5.3,8.5-5.8,10.2c-0.1,1.7,7.3,18.9,14.9,26.9c2.4,2.5,4.5,3.9,6.2,3.9c0.9,0.1,1.8-0.3,2.3-1&#10;&#9;&#9;c2.1-2.8-0.1-11-1.6-16.3c-1-3.5-1.5-5.6-1.4-6.6c0.5-3,10-18,12.7-22.2L64,368.5z"/>
	<path class="st1_augmented-reality-44" d="M174.3,369.1c0,0,1.1,33.5,3.9,35.3c5.5,3.6,20.1-18,20.1-18s9.5-14.8,7.9-21.1s-13.4,11.2-13.4,11.2&#10;&#9;&#9;l-1.6-17.5L174.3,369.1z"/>
	<path class="st2_augmented-reality-44" d="M179.5,405.5c-0.6,0-1.2-0.2-1.7-0.5c-2.9-1.9-4-27.9-4.2-35.9c0-0.3,0.1-0.5,0.4-0.6l16.9-10.1&#10;&#9;&#9;c0.2-0.1,0.5-0.1,0.7,0c0.2,0.1,0.4,0.3,0.4,0.6l1.5,15.5c2.7-3.8,8.7-11.8,11.8-11.2c0.6,0.1,1.4,0.5,1.7,1.9&#10;&#9;&#9;c1.7,6.5-7.6,21-8,21.7C197.5,388.9,186,405.5,179.5,405.5z M175,369.5c0.6,16,2,33.2,3.6,34.3c3.6,2.3,13.6-9.7,19.1-17.8&#10;&#9;&#9;c0.1-0.1,9.3-14.6,7.8-20.5c-0.2-0.8-0.5-0.8-0.6-0.8c-2.1-0.4-8,6.9-11.5,12.2c-0.2,0.2-0.5,0.4-0.8,0.3c-0.3-0.1-0.5-0.3-0.5-0.6&#10;&#9;&#9;l-1.5-16.4L175,369.5z"/>
	<path class="st2_augmented-reality-44" d="M95.1,225.7c0,0-16.4,97.6-33.8,148.3c0,0,4.9-2.5,11.5,0.5s11.7,9.9,11.7,9.9s29.8-46.6,36.3-68.4&#10;&#9;&#9;s14.6-43.3,14.6-43.3s22.6,39.2,25.8,51.8s12,59.3,12,59.3s7.9,5.2,21.6-14.5c0,0,1.4-41-3.5-72.7s-32.8-69.6-32.8-69.6&#10;&#9;&#9;S110.9,229.5,95.1,225.7z"/>
	<path class="st2_augmented-reality-44" d="M175.9,385.2c-1.1,0-2.2-0.2-3.1-0.7c-0.2-0.1-0.3-0.3-0.3-0.5c-0.1-0.5-8.8-46.9-12-59.3&#10;&#9;&#9;c-2.9-11-21.1-43.4-25-50.3c-1.9,5.1-8.5,23.5-14,41.9c-6.5,21.7-36.1,68.1-36.4,68.6c-0.1,0.2-0.3,0.3-0.6,0.3&#10;&#9;&#9;c-0.2,0-0.5-0.1-0.6-0.3c-0.1-0.1-5.2-6.8-11.5-9.7s-10.8-0.6-10.9-0.5c-0.3,0.2-0.8,0.1-1-0.3c-0.1-0.2-0.1-0.4,0-0.6&#10;&#9;&#9;c17.3-50.1,33.7-147.2,33.8-148.2c0-0.2,0.1-0.4,0.3-0.5c0.2-0.1,0.4-0.1,0.5-0.1c15.6,3.8,62.7,1.4,63.1,1.4&#10;&#9;&#9;c0.2,0,0.5,0.1,0.6,0.3c0.3,0.4,28,38.4,32.9,69.9s3.6,72.4,3.5,72.9c0,0.1,0,0.3-0.1,0.4C186.2,382.8,179.6,385.2,175.9,385.2z&#10;&#9;&#9; M173.8,383.4c1.4,0.6,8.6,2.5,20.2-14.2c0.1-3.2,1.1-42.3-3.5-72.4c-4.6-29.7-29.8-65.3-32.4-69c-4.8,0.2-46.6,2.2-62.4-1.3&#10;&#9;&#9;c-1.5,9-17,98.1-33.3,146.3c3.6-0.9,7.3-0.5,10.6,1.1c5.4,2.5,9.8,7.4,11.4,9.3c4-6.4,29.7-47.5,35.7-67.4&#10;&#9;&#9;c6.5-21.6,14.5-43.1,14.6-43.4c0.1-0.3,0.3-0.4,0.6-0.5c0.3,0,0.5,0.1,0.7,0.4c0.9,1.6,22.6,39.5,25.9,52&#10;&#9;&#9;C164.9,336.2,173,379.1,173.8,383.4L173.8,383.4z"/>
	<path class="st3_augmented-reality-44 targetColor" d="M88.8,239.5c0,0,6.8-77.4,7.9-83.7c5.5-29.5,23.7-20.3,43.1-15.2c12.6,3.3,46.7,19,46.7,19s-0.6,21.9-5.6,31.7&#10;&#9;&#9;l-17.2-7.5c0,0,2.4,20.6,0,51.1C163.8,234.9,122,261.2,88.8,239.5z" style="fill: rgb(89, 227, 165);"/>
	<path class="st1_augmented-reality-44" d="M54.4,387.4c0,0,1.4-3.9,7.8,0s16.4,24.2,13.9,28.5"/>
	<path class="st2_augmented-reality-44" d="M76.1,416.6c-0.1,0-0.2,0-0.3-0.1c-0.3-0.2-0.5-0.6-0.3-0.9c0,0,0,0,0-0.1c2.3-4-7.6-23.8-13.7-27.5&#10;&#9;&#9;c-2.9-1.8-4.6-1.8-5.5-1.5c-0.6,0.2-1,0.6-1.3,1.1c-0.2,0.4-0.6,0.5-0.9,0.4c-0.3-0.1-0.5-0.5-0.4-0.9c0.4-0.9,1.2-1.6,2.1-2&#10;&#9;&#9;c1.7-0.6,4-0.1,6.7,1.6c6.2,3.8,17,24.4,14.2,29.4C76.6,416.4,76.4,416.6,76.1,416.6z"/>
	<polygon class="st1_augmented-reality-44" points="202.5,121.4 196.8,124.5 196.8,117.6 202.5,114.5 &#9;"/>
	<path class="st2_augmented-reality-44" d="M196.8,125.2c-0.1,0-0.3,0-0.4-0.1c-0.2-0.1-0.3-0.4-0.3-0.6v-6.9c0-0.3,0.1-0.5,0.4-0.6l5.7-3.1&#10;&#9;&#9;c0.2-0.1,0.5-0.1,0.7,0c0.2,0.1,0.3,0.4,0.3,0.6v6.9c0,0.3-0.1,0.5-0.4,0.6l-5.7,3.1C197,125.2,196.9,125.2,196.8,125.2z&#10;&#9;&#9; M197.5,118v5.3l4.3-2.3v-5.3L197.5,118z M202.5,121.4L202.5,121.4z"/>
	<polygon class="st1_augmented-reality-44" points="191.1,121.4 196.8,124.5 196.8,117.6 191.1,114.5 &#9;"/>
	<path class="st2_augmented-reality-44" d="M196.8,125.2c-0.1,0-0.2,0-0.3-0.1l-5.7-3.1c-0.2-0.1-0.4-0.4-0.4-0.6v-6.9c0-0.2,0.1-0.5,0.3-0.6&#10;&#9;&#9;c0.2-0.1,0.5-0.1,0.7,0l5.7,3.1c0.2,0.1,0.4,0.4,0.4,0.6v6.9c0,0.2-0.1,0.5-0.3,0.6C197,125.2,196.9,125.2,196.8,125.2z M191.8,121&#10;&#9;&#9;l4.3,2.3V118l-4.3-2.3V121z"/>
	<polyline class="st1_augmented-reality-44" points="191.1,114.5 196.8,111.4 202.5,114.5 &#9;"/>
	<path class="st2_augmented-reality-44" d="M202.5,115.2c-0.1,0-0.2,0-0.3-0.1l-5.4-2.9l-5.4,2.9c-0.3,0.2-0.8,0.1-0.9-0.3c0,0,0,0,0,0&#10;&#9;&#9;c-0.2-0.3-0.1-0.8,0.2-1c0,0,0,0,0.1,0l5.7-3.1c0.2-0.1,0.5-0.1,0.7,0l5.7,3.1c0.3,0.2,0.5,0.6,0.3,0.9&#10;&#9;&#9;C203,115,202.7,115.2,202.5,115.2L202.5,115.2z"/>
</g>
<g id="Scanned_Object_augmented-reality-44">
	<path class="st2_augmented-reality-44" d="M438.6,314.6h-0.1l-100.9-20.4c-0.4-0.1-0.6-0.4-0.6-0.8c0.1-0.4,0.4-0.6,0.8-0.6l100.9,20.4&#10;&#9;&#9;c0.4,0.1,0.6,0.4,0.6,0.8c0,0,0,0,0,0C439.2,314.3,438.9,314.6,438.6,314.6z"/>
	<circle class="st2_augmented-reality-44" cx="339.5" cy="193.5" r="4.8"/>
	<path class="st2_augmented-reality-44" d="M339.5,199c-3,0-5.5-2.4-5.5-5.5c0-3,2.4-5.5,5.5-5.5c3,0,5.5,2.4,5.5,5.5c0,0,0,0,0,0&#10;&#9;&#9;C345,196.5,342.5,199,339.5,199z M339.5,189.4c-2.3,0-4.1,1.8-4.1,4.1c0,2.3,1.8,4.1,4.1,4.1c2.3,0,4.1-1.8,4.1-4.1c0,0,0,0,0,0&#10;&#9;&#9;C343.6,191.2,341.8,189.4,339.5,189.4L339.5,189.4z"/>
	<circle class="st2_augmented-reality-44" cx="337.7" cy="293.5" r="4.8"/>
	<path class="st2_augmented-reality-44" d="M337.7,299c-3,0-5.5-2.5-5.5-5.5c0-3,2.5-5.5,5.5-5.5c3,0,5.5,2.5,5.5,5.5c0,0,0,0,0,0&#10;&#9;&#9;C343.2,296.5,340.8,299,337.7,299z M337.7,289.4c-2.3,0-4.1,1.8-4.1,4.1s1.8,4.1,4.1,4.1c2.3,0,4.1-1.8,4.1-4.1c0,0,0,0,0,0&#10;&#9;&#9;C341.8,291.2,340,289.4,337.7,289.4L337.7,289.4z"/>
	<path class="st2_augmented-reality-44" d="M267.5,326.4c-0.4,0-0.7-0.3-0.7-0.7c0-0.3,0.2-0.5,0.4-0.6l69.8-32l1.8-99.6c0-0.4,0.3-0.7,0.7-0.7&#10;&#9;&#9;c0,0,0,0,0,0c0.4,0,0.7,0.3,0.7,0.7c0,0,0,0,0,0l-1.8,100c0,0.3-0.2,0.5-0.4,0.6l-70.2,32.2C267.7,326.3,267.6,326.4,267.5,326.4z"/>
	<path class="st1_augmented-reality-44" d="M300.7,294l-5.2,30.5c0.9,1.4,2.7,1.8,4.1,1c0.1,0,0.2-0.1,0.2-0.2l9.4-30.5L300.7,294z"/>
	<path class="st0_augmented-reality-44" d="M298.1,326.6c-0.2,0-0.4,0-0.6,0c-1-0.3-1.9-0.9-2.5-1.7c-0.1-0.1-0.1-0.3-0.1-0.5l5.2-30.5&#10;&#9;&#9;c0.1-0.4,0.4-0.6,0.8-0.6l8.6,0.8c0.2,0,0.4,0.1,0.5,0.3c0.1,0.2,0.2,0.4,0.1,0.6l-9.4,30.5c0,0.2-0.1,0.3-0.3,0.4&#10;&#9;&#9;C299.6,326.3,298.9,326.6,298.1,326.6z M296.3,324.2c0.4,0.5,0.9,0.8,1.5,0.9c0.5,0.1,1.1,0,1.6-0.4l9.1-29.4l-7.1-0.6L296.3,324.2&#10;&#9;&#9;z"/>
	<path class="st1_augmented-reality-44" d="M390.8,297.3l4.4,30.7c0,0-1.6,2.5-4.7,0.1l-6.7-27.8L390.8,297.3z"/>
	<path class="st0_augmented-reality-44" d="M393,329.9c-1.1-0.1-2.1-0.5-2.9-1.1c-0.1-0.1-0.2-0.2-0.3-0.4l-6.7-27.8c-0.1-0.3,0.1-0.7,0.4-0.8l7-3.1&#10;&#9;&#9;c0.3-0.2,0.8,0,0.9,0.3c0,0.1,0.1,0.1,0.1,0.2l4.4,30.7c0,0.2,0,0.3-0.1,0.5c-0.5,0.7-1.3,1.2-2.1,1.4&#10;&#9;&#9;C393.4,329.8,393.2,329.9,393,329.9z M391.1,327.7c0.6,0.5,1.4,0.8,2.2,0.7c0.4-0.1,0.8-0.3,1.1-0.6l-4.2-29.5l-5.6,2.5&#10;&#9;&#9;L391.1,327.7z"/>
	<path class="st1_augmented-reality-44" d="M356.5,306.6c-0.6,0.6,1.1,33.5,1.1,33.5s2,3.3,5.4,0l2.5-34.4L356.5,306.6z"/>
	<path class="st0_augmented-reality-44" d="M360.1,342.4c-0.1,0-0.3,0-0.4,0c-1.1-0.2-2-0.9-2.6-1.8c-0.1-0.1-0.1-0.2-0.1-0.3c-1.6-33.2-1.1-33.8-0.9-34&#10;&#9;&#9;c0.1-0.1,0.3-0.2,0.5-0.2l9-0.8c0.2,0,0.4,0.1,0.5,0.2c0.2,0.1,0.2,0.3,0.2,0.5l-2.5,34.4c0,0.2-0.1,0.3-0.2,0.5&#10;&#9;&#9;C362.6,341.7,361.4,342.3,360.1,342.4z M358.3,340c0.4,0.5,0.9,0.9,1.5,1c0.9,0,1.8-0.4,2.5-1.1l2.4-33.3l-7.6,0.7&#10;&#9;&#9;C357,310.4,357.7,328,358.3,340z"/>
	<path class="st1_augmented-reality-44" d="M330.5,282.8c-0.5,0.6,2.2,33.5,2.2,33.5s2.1,3.3,5.4-0.2l1.3-34.4L330.5,282.8z"/>
	<path class="st0_augmented-reality-44" d="M335.2,318.4c-0.1,0-0.2,0-0.3,0c-1.1-0.2-2.1-0.8-2.7-1.7c-0.1-0.1-0.1-0.2-0.1-0.3c-2.8-33.1-2.3-33.7-2-34&#10;&#9;&#9;c0.1-0.1,0.3-0.2,0.4-0.2l8.9-1.1c0.2,0,0.4,0,0.6,0.2c0.1,0.1,0.2,0.3,0.2,0.5l-1.3,34.4c0,0.2-0.1,0.3-0.2,0.5&#10;&#9;&#9;C337.8,317.6,336.6,318.3,335.2,318.4z M333.4,316c0.4,0.5,0.9,0.9,1.6,1c0.9,0,1.8-0.4,2.4-1.2l1.3-33.3l-7.6,1&#10;&#9;&#9;C331.1,286.5,332.4,304.2,333.4,316z"/>
	<path class="st1_augmented-reality-44" d="M333.4,242.4c0,0,3.4-30.5,9.8-32.2c9.8-2.5,57.4-1.8,60.8-0.2c12,5.8-3,53.1-3,53.1s-34.5,9-37.5,10.8&#10;&#9;&#9;s-34.5-7.1-34.5-7.1L333.4,242.4z"/>
	<path class="st0_augmented-reality-44" d="M362,274.9c-7,0-28.5-6-33.2-7.3c-0.3-0.1-0.6-0.4-0.5-0.8l4.4-24.5c0.4-3.3,3.6-31.1,10.3-32.8&#10;&#9;&#9;c9.4-2.4,57.6-1.9,61.3-0.1c12.5,6-1.9,52-2.5,53.9c-0.1,0.2-0.3,0.4-0.5,0.5c-9.6,2.5-34.9,9.2-37.3,10.7&#10;&#9;&#9;C363.3,274.8,362.7,274.9,362,274.9z M329.8,266.4c13,3.6,31.5,8.1,33.4,7c2.9-1.8,33.4-9.8,37.3-10.8c4.2-13.3,12.5-47.4,3.2-51.9&#10;&#9;&#9;c-3-1.4-50-2.4-60.3,0.2c-4.4,1.1-7.9,19.5-9.3,31.6l0,0L329.8,266.4z M333.4,242.4L333.4,242.4z"/>
	<path class="st1_augmented-reality-44" d="M295.5,246.2c0,0,31.6-4.7,37.8-3.8s4.4,19.5,4.4,19.5l50,6.4L375.5,303l-76.8-14.7L295.5,246.2z"/>
	<path class="st0_augmented-reality-44" d="M375.5,303.7h-0.1L298.5,289c-0.3-0.1-0.5-0.3-0.6-0.6l-3.2-42.1c0-0.4,0.2-0.7,0.6-0.8&#10;&#9;&#9;c1.3-0.2,31.8-4.7,38-3.8s5.4,15.8,5,19.5l49.3,6.3c0.2,0,0.4,0.2,0.5,0.3c0.1,0.2,0.1,0.4,0.1,0.6l-12.2,34.7&#10;&#9;&#9;C376,303.5,375.8,303.7,375.5,303.7z M299.3,287.7l75.7,14.5l11.7-33.3l-49.1-6.3c-0.4,0-0.7-0.4-0.6-0.8c0.5-5,0.8-18-3.8-18.7&#10;&#9;&#9;c-5.6-0.8-32.5,3-37,3.7L299.3,287.7z"/>
	<path class="st1_augmented-reality-44" d="M357.4,278.5c-0.9-0.2-54.4-4.5-54.4-4.5s0.7,25.1,4.1,28.5l46.8,7.1L357.4,278.5z"/>
	<path class="st0_augmented-reality-44" d="M354,310.3h-0.1l-46.8-7.1c-0.1,0-0.3-0.1-0.4-0.2c-3.5-3.5-4.2-26.4-4.3-29c0-0.2,0.1-0.4,0.2-0.5&#10;&#9;&#9;c0.1-0.1,0.3-0.2,0.5-0.2c5.5,0.5,53.5,4.4,54.4,4.6c0.4,0.1,0.6,0.4,0.6,0.8l-3.4,31.1c0,0.2-0.1,0.4-0.3,0.5&#10;&#9;&#9;C354.3,310.2,354.2,310.3,354,310.3z M307.5,301.8l45.8,7l3.3-29.6c-4.9-0.5-35.6-3-52.9-4.4C304.1,284.5,305.3,299,307.5,301.8&#10;&#9;&#9;L307.5,301.8z"/>
	<path class="st1_augmented-reality-44" d="M307.2,302.5c0,0-2.2-55-8.5-56.3s-9.7,4.6-9.1,13.4s7.2,40.4,7.2,40.4L307.2,302.5z"/>
	<path class="st0_augmented-reality-44" d="M307.2,303.2c-0.1,0-0.1,0-0.2,0l-10.4-2.4c-0.3-0.1-0.5-0.3-0.5-0.5c-0.3-1.3-6.6-31.9-7.2-40.5&#10;&#9;&#9;c-0.4-5.7,0.9-10.3,3.5-12.6c1.7-1.5,4.1-2.1,6.4-1.5c6.5,1.3,8.7,47.6,9,56.9c0,0.2-0.1,0.4-0.3,0.6&#10;&#9;&#9;C307.4,303.1,307.3,303.2,307.2,303.2z M297.4,299.5l9,2.1c-1.5-34.8-5.1-54.1-7.9-54.7c-1.8-0.5-3.7,0-5.1,1.2&#10;&#9;&#9;c-2.3,2-3.5,6.2-3.1,11.5C290.9,267.6,296.6,295.6,297.4,299.5z"/>
	<path class="st1_augmented-reality-44" d="M363.5,252.9c0.4-0.1,28.5-8.3,31.3-6.5s6.2,8.1,7.2,13.7c0.9,5.6-8.7,41.9-8.7,41.9l-28.4,8.8L363.5,252.9z"/>
	<path class="st0_augmented-reality-44" d="M364.9,311.5c-0.1,0-0.3,0-0.4-0.1c-0.2-0.1-0.3-0.3-0.3-0.6l-1.3-57.8c0-0.3,0.2-0.7,0.6-0.7l1.5-0.4&#10;&#9;&#9;c24.5-6.9,29.1-6.8,30.3-5.9c3.1,2.1,6.5,8.6,7.5,14.2s-8.4,40.7-8.8,42.1c-0.1,0.2-0.2,0.4-0.5,0.5l-28.4,8.8L364.9,311.5z&#10;&#9;&#9; M364.3,253.5l1.3,56.4l27.2-8.4c3.4-12.6,9.4-36.9,8.6-41.2c-1-5.8-4.4-11.6-6.9-13.3c-0.6-0.4-4.8-0.7-29.2,6.1L364.3,253.5z"/>
	<path class="st1_augmented-reality-44" d="M354,309.6c0-0.9,0.3-50.3,4.7-54.4s13.1-3.1,14.4,4.1s-8.1,51.5-8.1,51.5L354,309.6z"/>
	<path class="st0_augmented-reality-44" d="M364.9,311.5L364.9,311.5l-11-1.2c-0.4,0-0.6-0.3-0.6-0.7c0-0.5,0.2-50.5,4.9-54.9c2.7-2.4,6.5-3.2,10-2.1&#10;&#9;&#9;c2.9,1,5.1,3.5,5.5,6.5c1.3,7.2-7.7,50-8.1,51.8C365.5,311.3,365.2,311.5,364.9,311.5z M354.7,308.9l9.7,1.1&#10;&#9;&#9;c1.1-5.4,9.1-44.1,8-50.6c-0.4-2.5-2.1-4.7-4.6-5.4c-3-1-6.3-0.3-8.6,1.8C355.8,258.8,354.7,295.2,354.7,308.9L354.7,308.9z"/>
	<path class="st1_augmented-reality-44" d="M337.7,261.9c0,0-24.4,8-29.5,10.1"/>
	<path class="st0_augmented-reality-44" d="M308.2,272.6c-0.4,0-0.7-0.3-0.7-0.7c0-0.3,0.2-0.5,0.4-0.7c5.1-2,29.3-10,29.6-10.1c0.4-0.1,0.8,0.1,0.9,0.4&#10;&#9;&#9;c0,0,0,0,0,0c0.1,0.4-0.1,0.8-0.5,0.9c-0.2,0.1-24.4,8-29.5,10C308.4,272.6,308.3,272.6,308.2,272.6z"/>
	<path class="st1_augmented-reality-44" d="M398,250c0,0-2.6-28.7,2.8-34.8"/>
	<path class="st0_augmented-reality-44" d="M398,250.7c-0.4,0-0.7-0.3-0.7-0.6c-0.1-1.2-2.6-29.1,3-35.3c0.3-0.3,0.7-0.3,1-0.1c0.3,0.3,0.3,0.7,0,1&#10;&#9;&#9;c0,0,0,0,0,0c-5.1,5.8-2.6,34-2.6,34.2C398.7,250.3,398.5,250.7,398,250.7C398.1,250.7,398.1,250.7,398,250.7L398,250.7z"/>
	<circle class="st2_augmented-reality-44" cx="373.6" cy="223.2" r="4.8"/>
	<path class="st2_augmented-reality-44" d="M373.6,228.7c-3,0-5.5-2.5-5.5-5.5s2.5-5.5,5.5-5.5c3,0,5.5,2.5,5.5,5.5l0,0&#10;&#9;&#9;C379.2,226.3,376.7,228.7,373.6,228.7z M373.6,219.1c-2.3,0-4.1,1.8-4.1,4.1s1.8,4.1,4.1,4.1c2.3,0,4.1-1.8,4.1-4.1c0,0,0,0,0,0&#10;&#9;&#9;C377.8,220.9,375.9,219.1,373.6,219.1L373.6,219.1z"/>
	<circle class="st2_augmented-reality-44" cx="268.6" cy="214.3" r="4.8"/>
	<path class="st2_augmented-reality-44" d="M268.6,219.8c-3,0-5.5-2.5-5.5-5.5s2.5-5.5,5.5-5.5c3,0,5.5,2.5,5.5,5.5l0,0&#10;&#9;&#9;C274.1,217.3,271.7,219.8,268.6,219.8z M268.6,210.1c-2.3,0-4.1,1.8-4.1,4.1s1.8,4.1,4.1,4.1c2.3,0,4.1-1.8,4.1-4.1c0,0,0,0,0,0&#10;&#9;&#9;C272.8,212,270.9,210.1,268.6,210.1z"/>
	<circle class="st2_augmented-reality-44" cx="371.5" cy="346.3" r="4.8"/>
	<path class="st2_augmented-reality-44" d="M371.5,351.8c-3,0-5.5-2.5-5.5-5.5s2.5-5.5,5.5-5.5s5.5,2.5,5.5,5.5c0,0,0,0,0,0&#10;&#9;&#9;C377,349.3,374.5,351.8,371.5,351.8z M371.5,342.2c-2.3,0-4.1,1.8-4.1,4.1s1.8,4.1,4.1,4.1c2.3,0,4.1-1.8,4.1-4.1&#10;&#9;&#9;S373.8,342.2,371.5,342.2L371.5,342.2z"/>
	<circle class="st2_augmented-reality-44" cx="267.5" cy="325.7" r="4.8"/>
	<path class="st2_augmented-reality-44" d="M267.5,331.2c-3,0-5.5-2.5-5.5-5.5s2.5-5.5,5.5-5.5s5.5,2.5,5.5,5.5c0,0,0,0,0,0&#10;&#9;&#9;C273,328.7,270.5,331.2,267.5,331.2z M267.5,321.5c-2.3,0-4.1,1.8-4.1,4.1c0,2.3,1.8,4.1,4.1,4.1c2.3,0,4.1-1.8,4.1-4.1&#10;&#9;&#9;c0,0,0,0,0,0C271.6,323.4,269.8,321.5,267.5,321.5L267.5,321.5z"/>
	<circle class="st2_augmented-reality-44" cx="440.8" cy="201.4" r="4.8"/>
	<path class="st2_augmented-reality-44" d="M440.8,207c-3.1,0-5.5-2.5-5.5-5.5c0-3.1,2.5-5.5,5.5-5.5c3.1,0,5.5,2.5,5.5,5.5c0,0,0,0,0,0&#10;&#9;&#9;C446.3,204.5,443.8,207,440.8,207z M440.8,197.4c-2.3,0-4.1,1.8-4.1,4.1s1.8,4.1,4.1,4.1c2.3,0,4.1-1.8,4.1-4.1c0,0,0,0,0,0&#10;&#9;&#9;C444.9,199.2,443.1,197.3,440.8,197.4C440.8,197.3,440.8,197.3,440.8,197.4L440.8,197.4z"/>
	<circle class="st2_augmented-reality-44" cx="438.6" cy="313.9" r="4.8"/>
	<path class="st2_augmented-reality-44" d="M438.6,319.4c-3,0-5.5-2.5-5.5-5.5s2.5-5.5,5.5-5.5s5.5,2.5,5.5,5.5c0,0,0,0,0,0&#10;&#9;&#9;C444.1,316.9,441.7,319.4,438.6,319.4z M438.6,309.7c-2.3,0-4.1,1.8-4.1,4.1c0,2.3,1.8,4.1,4.1,4.1c2.3,0,4.1-1.8,4.1-4.1&#10;&#9;&#9;c0,0,0,0,0,0C442.7,311.6,440.9,309.7,438.6,309.7z"/>
	<path class="st2_augmented-reality-44" d="M371.5,347h-0.1l-104-20.6c-0.3-0.1-0.6-0.4-0.6-0.7l1.1-111.4c0-0.4,0.3-0.7,0.7-0.7c0,0,0,0,0,0l0,0&#10;&#9;&#9;c0.4,0,0.7,0.3,0.7,0.7c0,0,0,0,0,0l-1.1,110.8l102.6,20.3l2.1-122.2c0-0.3,0.2-0.6,0.5-0.6l67.1-21.8c0.4-0.1,0.8,0.1,0.9,0.4&#10;&#9;&#9;c0,0.1,0,0.2,0,0.2l-2.2,112.4c0,0.4-0.3,0.7-0.7,0.7c0,0,0,0,0,0l0,0c-0.4,0-0.7-0.3-0.7-0.7c0,0,0,0,0,0l2.1-111.5l-65.7,21.3&#10;&#9;&#9;l-2.2,122.6c0,0.2-0.1,0.4-0.3,0.5C371.8,346.9,371.6,347,371.5,347z"/>
	<path class="st2_augmented-reality-44" d="M373.1,347c-0.3,0-0.5-0.1-0.6-0.4c-0.2-0.3,0-0.8,0.3-0.9c0,0,0,0,0,0l65.5-32.4c0.3-0.2,0.8-0.1,1,0.2&#10;&#9;&#9;c0.2,0.3,0.1,0.8-0.2,1c0,0-0.1,0-0.1,0.1l-65.5,32.4C373.4,347,373.2,347,373.1,347z"/>
	<path class="st2_augmented-reality-44" d="M268.6,215c-0.4,0-0.7-0.3-0.7-0.7c0-0.3,0.2-0.6,0.5-0.7l70.9-20.8c0.1,0,0.2,0,0.2,0l101.2,7.9&#10;&#9;&#9;c0.4,0,0.7,0.4,0.7,0.7c0,0,0,0,0,0c0,0.4-0.4,0.7-0.7,0.6c0,0,0,0,0,0l-101.1-7.9L268.8,215C268.8,215,268.7,215,268.6,215z"/>
	<line class="st4_augmented-reality-44" x1="268.6" y1="214.3" x2="373.6" y2="223.2"/>
	<path class="st2_augmented-reality-44" d="M373.6,223.9L373.6,223.9l-105.1-9c-0.4,0-0.7-0.4-0.6-0.8c0-0.4,0.4-0.7,0.8-0.6l105,9c0.4,0,0.7,0.4,0.6,0.8&#10;&#9;&#9;C374.3,223.6,374,223.9,373.6,223.9z"/>
</g>
</svg>